<?xml version="1.0"?>
<svg xmlns="http://www.w3.org/2000/svg" xmlns:xlink="http://www.w3.org/1999/xlink" xmlns:svgjs="http://svgjs.com/svgjs" version="1.1" width="512" height="512" x="0" y="0" viewBox="0 0 512 512" style="enable-background:new 0 0 512 512" xml:space="preserve" class=""><g><linearGradient xmlns="http://www.w3.org/2000/svg" id="a" gradientUnits="userSpaceOnUse" x1="-87.33" x2="424.83" y1="435.33" y2="-76.83" data-name="New Gradient Swatch 1"><stop stop-opacity="1" stop-color="#ff4b2b" offset="0.0019305019305019305"/><stop stop-opacity="1" stop-color="#ff416c" offset="1"/><stop stop-opacity="1" stop-color="#006df0" offset="1"/></linearGradient><linearGradient xmlns="http://www.w3.org/2000/svg" xmlns:xlink="http://www.w3.org/1999/xlink" id="b" x1="-29.74" x2="482.421" xlink:href="#a" y1="492.92" y2="-19.24"/><linearGradient xmlns="http://www.w3.org/2000/svg" xmlns:xlink="http://www.w3.org/1999/xlink" id="c" x1="50.023" x2="562.183" xlink:href="#a" y1="572.683" y2="60.523"/><g xmlns="http://www.w3.org/2000/svg"><path d="m189.1 206.5-46.532-67.061a8 8 0 0 0 -13.144 0l-46.524 67.061a8.045 8.045 0 0 0 -.581.98 28 28 0 0 0 25.041 40.52h8.394l-3.515 14.06a8 8 0 0 0 7.761 9.94h32a8 8 0 0 0 7.7-10.166l-3.889-13.834h8.829a28 28 0 0 0 25.045-40.52 8.045 8.045 0 0 0 -.585-.98zm-14.253 19.806a11.773 11.773 0 0 1 -10.207 5.694h-19.39a8 8 0 0 0 -7.7 10.166l3.889 13.834h-11.193l3.515-14.06a8 8 0 0 0 -7.761-9.94h-18.64a12 12 0 0 1 -10.953-16.906l39.593-57.061 39.593 57.061a11.746 11.746 0 0 1 -.742 11.212z" fill="url(#a)" data-original="url(#a)" style="" class=""/><path d="m490.21 154.25-204.57-69.33a20.021 20.021 0 0 0 -21.64 5.99v-54.91a20.02 20.02 0 0 0 -20-20h-216a20.02 20.02 0 0 0 -20 20v328a20.02 20.02 0 0 0 20 20h135.14l-8.16 24.09a20.055 20.055 0 0 0 12.53 25.36l204.57 69.32a19.99 19.99 0 0 0 25.36-12.51l105.29-310.64a20.04 20.04 0 0 0 -12.52-25.37zm-462.21 213.75a4 4 0 0 1 -4-4v-328a4 4 0 0 1 4-4h216a4 4 0 0 1 4 4v328a4 4 0 0 1 -4 4zm459.57-193.52-105.29 310.64a3.963 3.963 0 0 1 -5.06 2.5l-204.57-69.33a4.007 4.007 0 0 1 -2.51-5.07l9.9-29.22h63.96a20.02 20.02 0 0 0 20-20v-227.71l11.43-33.71a3.994 3.994 0 0 1 5.07-2.5l204.57 69.32a4.012 4.012 0 0 1 2.5 5.08z" fill="url(#b)" data-original="url(#b)" style="" class=""/><path d="m352.188 247.3a8 8 0 0 0 -13.553-4.594l-38.135 37.755a8 8 0 0 0 -2.3 6.777l7.322 53.163a8 8 0 0 0 13.553 4.599l38.138-37.756a8 8 0 0 0 2.3-6.776zm-33 75.069-4.593-33.35 23.925-23.686 4.593 33.351z" fill="url(#c)" data-original="url(#c)" style=""/></g></g></svg>
