<?xml version="1.0"?>
<svg xmlns="http://www.w3.org/2000/svg" xmlns:xlink="http://www.w3.org/1999/xlink" xmlns:svgjs="http://svgjs.com/svgjs" version="1.1" width="512" height="512" x="0" y="0" viewBox="0 0 512 512" style="enable-background:new 0 0 512 512" xml:space="preserve" class=""><g>
<linearGradient xmlns="http://www.w3.org/2000/svg" id="SVGID_1_" gradientUnits="userSpaceOnUse" x1="256" y1="514" x2="256" y2="2" gradientTransform="matrix(1 0 0 -1 0 514)"><stop stop-opacity="1" stop-color="#ff4b2b" offset="0.005791505791505791"/><stop stop-opacity="1" stop-color="#ff416c" offset="1"/></linearGradient>
<path xmlns="http://www.w3.org/2000/svg" style="fill:url(#SVGID_1_);" d="M437.02,330.98c-27.883-27.882-61.071-48.523-97.281-61.018  C378.521,243.251,404,198.548,404,148C404,66.393,337.607,0,256,0S108,66.393,108,148c0,50.548,25.479,95.251,64.262,121.962  c-36.21,12.495-69.398,33.136-97.281,61.018C26.629,379.333,0,443.62,0,512h40c0-119.103,96.897-216,216-216s216,96.897,216,216h40  C512,443.62,485.371,379.333,437.02,330.98z M148,148c0-59.552,48.449-108,108-108s108,48.448,108,108s-48.449,108-108,108  S148,207.552,148,148z" fill=""/>
<g xmlns="http://www.w3.org/2000/svg">
</g>
<g xmlns="http://www.w3.org/2000/svg">
</g>
<g xmlns="http://www.w3.org/2000/svg">
</g>
<g xmlns="http://www.w3.org/2000/svg">
</g>
<g xmlns="http://www.w3.org/2000/svg">
</g>
<g xmlns="http://www.w3.org/2000/svg">
</g>
<g xmlns="http://www.w3.org/2000/svg">
</g>
<g xmlns="http://www.w3.org/2000/svg">
</g>
<g xmlns="http://www.w3.org/2000/svg">
</g>
<g xmlns="http://www.w3.org/2000/svg">
</g>
<g xmlns="http://www.w3.org/2000/svg">
</g>
<g xmlns="http://www.w3.org/2000/svg">
</g>
<g xmlns="http://www.w3.org/2000/svg">
</g>
<g xmlns="http://www.w3.org/2000/svg">
</g>
<g xmlns="http://www.w3.org/2000/svg">
</g>
</g></svg>
